<svg xmlns="http://www.w3.org/2000/svg" viewBox="100 -158.0 1792 1792">
<rect x="100" y="-158.0" width="1792" height="1792" fill="#FFFFFF"/>
<g transform="translate(0.000000,1916.000000) scale(0.100000,-0.100000)" fill="#5A8322" stroke="none">
<path d="M13370 17528 c-1007 -66 -1816 -818 -1983 -1845 -35 -220 -35 -6417
1 -6641 265 -1662 1646 -2933 3263 -3003 2338 -101 4115 2058 3558 4323 -582
2366 -3271 3427 -5282 2085 -283 -189 -472 -356 -666 -590 -77 -91 -114 -114
-136 -84 -13 18 -13 3675 0 3772 131 980 1178 1539 2048 1095 1213 -620 739
-2523 -648 -2600 -325 -18 -462 -120 -473 -352 -14 -281 219 -431 598 -383
514 64 851 214 1223 545 1114 992 920 2812 -370 3470 -248 127 -717 232 -973
218 -14 0 -86 -5 -160 -10z m1830 -5268 c1071 -172 1887 -867 2225 -1895 105
-320 155 -831 111 -1135 -9 -58 -16 -127 -16 -153 0 -100 -58 -310 -147 -537
-604 -1539 -2388 -2207 -3815 -1429 -1283 701 -1796 2274 -1167 3584 418 872
1135 1413 2074 1564 177 28 561 29 735 1z"/>
<path d="M15468 11688 c-29 -31 -71 -86 -247 -327 -42 -57 -141 -187 -220
-290 -80 -102 -253 -330 -385 -506 -132 -176 -332 -443 -445 -593 -586 -778
-579 -768 -547 -800 15 -15 62 -17 495 -17 505 0 502 0 516 -46 7 -20 -12 -95
-75 -299 -21 -69 -65 -213 -98 -320 -33 -107 -70 -231 -82 -275 -35 -128 -98
-337 -152 -505 -168 -522 -142 -532 196 -70 103 140 235 318 294 395 112 146
161 212 279 380 206 294 275 389 403 552 47 59 147 191 223 293 140 189 239
319 358 470 153 196 167 190 -435 190 -436 0 -464 1 -479 18 -27 30 -20 70 58
327 18 61 47 162 65 225 44 164 161 554 229 765 142 440 154 545 49 433z"/>
<path d="M5977 15759 c-282 -41 -402 -394 -211 -617 101 -119 134 -125 686
-132 554 -6 493 12 587 -171 35 -68 164 -311 286 -539 123 -228 267 -503 320
-610 54 -107 140 -274 193 -370 53 -96 182 -339 288 -540 330 -628 357 -679
443 -834 46 -83 169 -317 273 -521 191 -373 240 -466 463 -875 185 -338 255
-477 255 -504 0 -51 -3 -51 -427 -51 -459 0 -435 -6 -448 122 -58 579 -437
1338 -946 1893 -747 814 -2038 1271 -3064 1085 -391 -71 -631 -138 -888 -249
-59 -25 -110 -46 -113 -46 -15 0 -254 -126 -359 -190 -373 -225 -690 -508
-997 -890 -749 -932 -933 -2381 -448 -3525 491 -1160 1670 -2047 2875 -2160
83 -8 200 -19 260 -25 115 -12 190 -9 495 16 680 55 1267 285 1849 723 308
232 757 739 873 986 108 232 -17 494 -262 549 -165 38 -299 -34 -430 -229
-621 -928 -1618 -1395 -2700 -1265 -1174 140 -2143 1015 -2409 2175 -66 290
-65 279 -64 576 7 2339 2602 3659 4462 2269 525 -392 898 -968 1075 -1656 43
-168 71 -158 -486 -162 -533 -3 -491 -11 -543 103 -120 264 -365 478 -624 547
-78 20 -960 48 -1035 32 -70 -15 -149 -116 -160 -204 -14 -113 -2 -110 -463
-110 -389 0 -389 0 -441 -26 -147 -73 -138 -265 15 -340 56 -28 56 -28 434
-25 508 3 459 45 459 -395 0 -404 59 -358 -457 -364 -364 -5 -413 -8 -451 -24
-133 -57 -147 -240 -24 -323 60 -40 116 -44 506 -42 426 3 416 6 416 -107 0
-159 111 -240 315 -230 61 3 238 10 395 15 308 11 363 17 485 51 265 73 510
286 610 531 36 87 54 109 100 119 23 5 761 9 1700 9 1801 1 1701 -2 1799 55
182 107 231 324 122 538 -23 46 -114 223 -201 393 -87 171 -202 391 -255 490
-237 440 -325 606 -445 840 -70 138 -165 318 -210 400 -127 231 -311 578 -490
925 -90 173 -188 362 -220 420 -131 241 -381 713 -510 965 -76 149 -187 362
-247 475 -167 314 -183 290 196 291 543 2 682 10 747 42 246 120 300 417 113
617 -107 114 29 105 -1584 106 -784 1 -1451 -2 -1483 -7z"/>
</g>
</svg>
